<svg xmlns="http://www.w3.org/2000/svg" viewBox="0 0 698 625.51"><defs><style>.cls-1{font-size:57px;fill:#292970;font-family:Ubuntu, Ubuntu;letter-spacing:0.82em;}.cls-2{fill:#181824;}</style></defs><title>Ativo 3</title><g id="Camada_2" data-name="Camada 2"><g id="maning_news" data-name="maning news"><text class="cls-1" transform="translate(300.25 614.74)">news</text><path class="cls-2" d="M69.3,501.46q0-17.26-4.44-24.46t-15.22-7.19q-3.36,0-7,.36t-7,.84V550.5a17.87,17.87,0,0,1-17.87,17.86h0A17.86,17.86,0,0,1,0,550.5V446.55q4.56-1.2,10.67-2.52c4.08-.87,8.39-1.68,13-2.4s9.23-1.27,14-1.67,9.5-.6,14.14-.6q13.68,0,22.18,3.47a50,50,0,0,1,14,8.28,61.32,61.32,0,0,1,17.62-8.64A62,62,0,0,1,124,439.36q15.1,0,24.82,4.19a37.43,37.43,0,0,1,15.46,11.87,44.76,44.76,0,0,1,7.91,18.23,117.4,117.4,0,0,1,2.16,23.49V550.5a17.86,17.86,0,0,1-17.86,17.86h0a17.87,17.87,0,0,1-17.87-17.86v-49q0-17.26-4.43-24.46t-15.23-7.19a32.15,32.15,0,0,0-8,1.44,31.47,31.47,0,0,0-8.51,3.59,55.79,55.79,0,0,1,2.16,11.63q.47,6.12.47,13.07v51a17.86,17.86,0,0,1-17.86,17.86h0A17.86,17.86,0,0,1,69.3,550.5Z"/><path class="cls-2" d="M231.63,439.36q15.83,0,26.38,3.59a41.08,41.08,0,0,1,16.9,10.31,38,38,0,0,1,9,16.31,80.34,80.34,0,0,1,2.64,21.34v74.33q-7.68,1.68-21.34,4a204.85,204.85,0,0,1-33.09,2.28,104.81,104.81,0,0,1-22.18-2.16,48,48,0,0,1-17.14-7.08,32.24,32.24,0,0,1-11-12.82q-3.84-7.92-3.84-19.43,0-11,4.43-18.7a34.28,34.28,0,0,1,11.87-12.23,53.85,53.85,0,0,1,17-6.59,95.4,95.4,0,0,1,19.9-2,112.9,112.9,0,0,1,12.35.6,54.87,54.87,0,0,1,8.75,1.56v-3.36q0-9.11-5.51-14.63t-19.19-5.51a122,122,0,0,0-18,1.32q-3.49.52-6.62,1.21a8.54,8.54,0,0,1-10.24-7L190.88,453a8.55,8.55,0,0,1,6.49-9.68l.09,0c3.12-.72,6.51-1.35,10.19-1.92s7.56-1,11.63-1.43S227.47,439.36,231.63,439.36Zm2.88,104.54q5.27,0,10.07-.24a70.16,70.16,0,0,0,7.67-.72V515.85q-2.16-.48-6.47-1a72.16,72.16,0,0,0-7.92-.48,70.83,70.83,0,0,0-9.47.6,24.7,24.7,0,0,0-7.79,2.28,13.26,13.26,0,0,0-5.27,4.55,12.62,12.62,0,0,0-1.92,7.19q0,8.4,5.63,11.63T234.51,543.9Z"/><path class="cls-2" d="M298.53,446.55a200.92,200.92,0,0,1,23.5-4.92,194.12,194.12,0,0,1,30.21-2.27q16.06,0,26.74,4.19a40.26,40.26,0,0,1,16.9,11.87,46.23,46.23,0,0,1,8.87,18.23,96.79,96.79,0,0,1,2.64,23.49V550.5a17.86,17.86,0,0,1-17.86,17.86h0a17.87,17.87,0,0,1-17.87-17.86v-49q0-17.26-4.55-24.46t-17-7.19c-2.56,0-5.27.12-8.15.36s-5.44.52-7.67.84V550.5a17.87,17.87,0,0,1-17.87,17.86h0a17.86,17.86,0,0,1-17.86-17.86Z"/><rect class="cls-2" x="419.38" y="439.36" width="36.26" height="127.99" rx="18.13" ry="18.13"/><path class="cls-2" d="M468.29,446.55a200.92,200.92,0,0,1,23.5-4.92A194.12,194.12,0,0,1,522,439.36q16.07,0,26.74,4.19a40.26,40.26,0,0,1,16.9,11.87,46.23,46.23,0,0,1,8.87,18.23,96.79,96.79,0,0,1,2.64,23.49V550.5a17.86,17.86,0,0,1-17.86,17.86h0a17.87,17.87,0,0,1-17.87-17.86v-49q0-17.26-4.55-24.46t-17-7.19c-2.56,0-5.27.12-8.15.36s-5.44.52-7.67.84V550.5a17.87,17.87,0,0,1-17.87,17.86h0a17.86,17.86,0,0,1-17.86-17.86Z"/><path class="cls-2" d="M698,552.53q0,30.94-15.71,45.92t-48.55,15a131.58,131.58,0,0,1-23-2c-2.36-.42-4.66-.87-6.91-1.37a15.09,15.09,0,0,1-11.57-17.78h0a15,15,0,0,1,18-11.61c1,.24,2,.46,3,.67a103.5,103.5,0,0,0,21,1.92q15.35,0,21.7-6.72t6.35-17.26v-4.56a57.48,57.48,0,0,1-11.87,4A63,63,0,0,1,637.09,560q-26.13,0-40-15.47t-13.91-43.28a70.88,70.88,0,0,1,4.32-25.3,53.85,53.85,0,0,1,12.59-19.54,56.19,56.19,0,0,1,20.26-12.59,77.84,77.84,0,0,1,27.1-4.43q6.47,0,13.3.6t13.55,1.55q6.71,1,12.83,2.28T698,446.55Zm-78.41-51.31q0,30,24.22,30a36.08,36.08,0,0,0,10.31-1.43,39.1,39.1,0,0,0,8.15-3.36V469.33q-2.64-.48-6.23-.84t-8.4-.36q-14.14,0-21.1,9.35T619.59,501.22Z"/><g id="_Grupo_" data-name="&lt;Grupo&gt;"><g id="_Grupo_2" data-name="&lt;Grupo&gt;"><path class="cls-2" d="M452.7,428.48c73.49-37.56,121.19-114.76,123-197.1C577.45,154.16,538.24,81.07,474.58,38,443,16.64,406.27,4.58,368.52.94c-38.9-3.74-77.83,3.85-113.41,19.52C188.3,49.9,137.72,115,125.82,187c-6.83,41.3-3.59,84.38,12.46,123.3a234.27,234.27,0,0,0,78.33,100.47,208,208,0,0,0,28.69,17.69c11.59,5.94,27.58,3.41,34.11-8.94,6-11.4,3.44-27.76-9-34.11a207.23,207.23,0,0,1-28.09-17.26,30.93,30.93,0,0,0-3-2.2c.35.2,4.76,3.78,1.56,1.18-1.72-1.39-3.43-2.78-5.11-4.21q-5.33-4.51-10.32-9.41-4.74-4.62-9.16-9.55c-2.88-3.21-5.39-7.19-8.52-10.13,4.35,4.08,2,2.64.77.95-.74-1-1.46-2-2.18-3-1.14-1.6-2.27-3.21-3.37-4.84q-4.12-6.12-7.81-12.54-3.14-5.46-5.92-11.12-1.49-3-2.86-6.05a20.64,20.64,0,0,0-1.21-2.73c3.3,5,1.11,2.68.22.44a199.85,199.85,0,0,1-8.5-26.5q-1.55-6.3-2.69-12.68c-.44-2.49-.61-5.15-1.2-7.6.11.44.72,6.33.3,2-.15-1.54-.34-3.08-.48-4.63a204.71,204.71,0,0,1-.69-27.24q.25-6.26.89-12.47c.13-1.2,1-8.37.38-3.52-.5,4.2-.11,1,0-.08.21-1.35.43-2.7.67-4a199.89,199.89,0,0,1,5.85-24.3q1.77-5.76,3.88-11.39c.62-1.66,1.29-3.31,1.93-5,1.45-3.72-.87,2.07-1,2.28.58-1.18,1-2.44,1.6-3.64a200.07,200.07,0,0,1,11.39-21.58q3.06-5.05,6.43-9.91,1.68-2.43,3.42-4.81l1.57-2.1c2.94-4-3.83,4.74-.69.91a231.09,231.09,0,0,1,15.71-17.53q4.17-4.16,8.59-8,2.2-2,4.46-3.84c1.5-1.25,8.49-6.28,1.6-1.42,6.45-4.55,12.76-9.18,19.56-13.23a226.76,226.76,0,0,1,21.7-11.18c1.7-.77,5-1.68-1.68.69.83-.29,1.65-.67,2.46-1,1.65-.65,3.31-1.29,5-1.9q6.27-2.31,12.7-4.19a199.51,199.51,0,0,1,23.75-5.42c1.13-.19,2.26-.35,3.38-.53,3.17-.51-5.74.71-2.55.33,2.06-.24,4.11-.49,6.17-.69q6.58-.63,13.19-.83a204.63,204.63,0,0,1,25.85.83c1.83.18,3.66.4,5.48.6,5,.56-5.26-.79-1.86-.24,1.12.18,2.25.34,3.38.53q6,1,12,2.36A199.82,199.82,0,0,1,412,61.3c1.67.61,3.33,1.25,5,1.9.81.33,1.63.71,2.46,1-6.72-2.37-3.38-1.46-1.68-.69,3.81,1.74,7.61,3.5,11.33,5.43A199.14,199.14,0,0,1,450,81.4c3.08,2.09,6,4.38,9,6.52-6.76-4.77-.83-.58.59.59,1.85,1.52,3.68,3.08,5.47,4.67a204.12,204.12,0,0,1,16.7,16.58c2.62,2.93,5.11,6,7.6,9s-1.35-1.77-1.48-2c.49.71,1.06,1.39,1.58,2.09q2.15,2.89,4.2,5.86a202.55,202.55,0,0,1,12.6,20.8c1.84,3.51,3.59,7.07,5.22,10.69.85,1.88,2.72,7.52.12.13.74,2.09,1.66,4.12,2.44,6.19a200.28,200.28,0,0,1,7.25,23.72q1.43,5.94,2.48,12c.35,2,.52,4.1,1,6.07-.05-.22-.82-6.66-.34-2.54.16,1.37.32,2.74.47,4.11a204.54,204.54,0,0,1,1,25.48q-.15,6.81-.76,13.61c-.2,2.24-.46,4.47-.71,6.71-.39,3.54,1-6.65.19-1.46-.24,1.47-.46,2.94-.71,4.4a200.38,200.38,0,0,1-6.18,25.68q-2,6.24-4.29,12.34c-.35.9-.71,1.79-1.06,2.69-1.5,3.84.69-1.63.86-2-1.2,2.34-2.13,4.85-3.26,7.22a200.11,200.11,0,0,1-12.89,23.12q-3.29,5.08-6.88,10c-.69.95-1.51,1.86-2.13,2.85.19-.3,3.83-4.83,1.27-1.68-1.49,1.84-3,3.68-4.53,5.48a202.19,202.19,0,0,1-18.33,18.81c-3,2.7-6.11,5.26-9.22,7.82-3.87,3.2,3.85-2.86,1.12-.84-.95.71-1.89,1.43-2.85,2.13q-2.88,2.1-5.82,4.11a207.63,207.63,0,0,1-22.16,13.06c-11.63,5.95-15.95,23.23-8.94,34.11,7.65,11.87,21.66,15.3,34.11,8.94Z"/></g><g id="_Grupo_3" data-name="&lt;Grupo&gt;"><g id="_Grupo_4" data-name="&lt;Grupo&gt;"><path class="cls-2" d="M233,182.24V407c0,13,11.47,25.53,24.93,24.93s24.93-11,24.93-24.93V182.24c0-13-11.47-25.53-24.93-24.93S233,168.26,233,182.24V407c0,13,11.47,25.53,24.93,24.93s24.93-11,24.93-24.93V182.24c0-13-11.47-25.53-24.93-24.93S233,168.26,233,182.24Z"/></g><g id="_Grupo_5" data-name="&lt;Grupo&gt;"><path class="cls-2" d="M361.2,246.29l-75.15-71.63-10.54-10c-9.45-9-26-10.08-35.26,0-8.95,9.76-10.08,25.64,0,35.25l75.16,71.64,10.54,10c9.45,9,26,10.09,35.25,0,9-9.75,10.09-25.64,0-35.25l-75.15-71.63-10.54-10c-9.45-9-26-10.08-35.26,0-8.95,9.76-10.08,25.64,0,35.25l75.16,71.64,10.54,10c9.45,9,26,10.09,35.25,0C370.16,271.79,371.29,255.9,361.2,246.29Z"/></g><g id="_Grupo_6" data-name="&lt;Grupo&gt;"><path class="cls-2" d="M465,407V182.24a25,25,0,0,0-15.33-22.78c-8.87-3.75-20.43-2.18-27.23,5.15l-88,94.94-12.54,13.52c-8.87,9.56-10.17,25.91,0,35.25,9.65,8.86,25.79,10.22,35.26,0l88-94.94,12.54-13.52-42.56-17.62V407c0,13,11.46,25.53,24.93,24.93S465,420.93,465,407Z"/></g></g></g></g></g></svg>