<svg xmlns="http://www.w3.org/2000/svg" viewBox="0 0 453.34 431.91"><defs><style>.cls-1{fill:#181824;}</style></defs><title>Ativo 2</title><g id="Camada_2" data-name="Camada 2"><g id="maning_news" data-name="maning news"><g id="_Grupo_" data-name="&lt;Grupo&gt;"><g id="_Grupo_2" data-name="&lt;Grupo&gt;"><path class="cls-1" d="M330.25,428.48c73.5-37.56,121.2-114.76,123-197.1C455,154.16,415.79,81.07,352.13,38c-31.54-21.34-68.3-33.4-106.06-37C207.18-2.8,168.24,4.79,132.66,20.46,65.85,49.9,15.27,115,3.37,187c-6.82,41.3-3.59,84.38,12.46,123.3A234.35,234.35,0,0,0,94.16,410.79a208,208,0,0,0,28.69,17.69c11.6,5.94,27.58,3.41,34.11-8.94,6-11.4,3.45-27.76-8.94-34.11a207.34,207.34,0,0,1-28.1-17.26,30.93,30.93,0,0,0-3-2.2c.36.2,4.76,3.78,1.56,1.18-1.72-1.39-3.43-2.78-5.11-4.21q-5.33-4.51-10.32-9.41Q98.38,348.91,94,344c-2.89-3.21-5.39-7.19-8.52-10.13,4.34,4.08,2,2.64.76.95-.73-1-1.46-2-2.17-3-1.15-1.6-2.28-3.21-3.37-4.84q-4.14-6.12-7.82-12.54-3.12-5.46-5.92-11.12c-1-2-1.94-4-2.86-6.05a20.57,20.57,0,0,0-1.2-2.73c3.29,5,1.11,2.68.21.44a201.32,201.32,0,0,1-8.5-26.5q-1.55-6.3-2.68-12.68c-.45-2.49-.61-5.15-1.21-7.6.11.44.73,6.33.31,2-.15-1.54-.34-3.08-.48-4.63a204.71,204.71,0,0,1-.7-27.24q.26-6.26.9-12.47c.12-1.2,1-8.37.38-3.52-.51,4.2-.12,1,0-.08.21-1.35.44-2.7.67-4A201.76,201.76,0,0,1,57.64,174q1.77-5.76,3.88-11.39c.63-1.66,1.29-3.31,1.94-5,1.45-3.72-.88,2.07-1,2.28.59-1.18,1.06-2.44,1.6-3.64a203.69,203.69,0,0,1,11.39-21.58q3.07-5.05,6.43-9.91,1.68-2.43,3.43-4.81c.51-.7,1-1.4,1.56-2.1,3-4-3.83,4.74-.68.91a228.84,228.84,0,0,1,15.7-17.53q4.19-4.16,8.59-8,2.2-2,4.47-3.84c1.49-1.25,8.48-6.28,1.6-1.42,6.45-4.55,12.75-9.18,19.55-13.23a226.76,226.76,0,0,1,21.7-11.18c1.7-.77,5-1.68-1.68.69.83-.29,1.65-.67,2.47-1,1.65-.65,3.3-1.29,5-1.9q6.28-2.31,12.71-4.19A198.91,198.91,0,0,1,200,51.69c1.13-.19,2.26-.35,3.38-.53,3.17-.51-5.73.71-2.54.33,2-.24,4.1-.49,6.16-.69q6.58-.63,13.2-.83a204.47,204.47,0,0,1,25.84.83c1.84.18,3.66.4,5.49.6,5,.56-5.27-.79-1.87-.24,1.13.18,2.26.34,3.38.53q6,1,12,2.36a200.49,200.49,0,0,1,24.45,7.25c1.66.61,3.32,1.25,5,1.9.81.33,1.64.71,2.46,1-6.71-2.37-3.37-1.46-1.68-.69,3.82,1.74,7.61,3.5,11.34,5.43A201.22,201.22,0,0,1,327.51,81.4c3.07,2.09,6,4.38,9,6.52-6.76-4.77-.83-.58.59.59,1.86,1.52,3.68,3.08,5.48,4.67a204,204,0,0,1,16.69,16.58c2.62,2.93,5.11,6,7.6,9s-1.35-1.77-1.48-2c.49.71,1.06,1.39,1.58,2.09q2.16,2.89,4.2,5.86a200.79,200.79,0,0,1,12.6,20.8q2.77,5.26,5.22,10.69c.86,1.88,2.73,7.52.13.13.73,2.09,1.66,4.12,2.43,6.19a198.43,198.43,0,0,1,7.25,23.72q1.43,5.94,2.48,12c.36,2,.52,4.1,1,6.07-.06-.22-.83-6.66-.35-2.54.16,1.37.33,2.74.47,4.11a204.54,204.54,0,0,1,1,25.48q-.17,6.81-.76,13.61c-.2,2.24-.47,4.47-.72,6.71-.38,3.54,1.05-6.65.19-1.46-.24,1.47-.45,2.94-.7,4.4a202.1,202.1,0,0,1-6.19,25.68c-1.29,4.16-2.73,8.27-4.29,12.34-.35.9-.71,1.79-1.06,2.69-1.49,3.84.69-1.63.86-2-1.2,2.34-2.13,4.85-3.25,7.22a203.14,203.14,0,0,1-12.89,23.12q-3.3,5.08-6.89,10c-.69.95-1.51,1.86-2.13,2.85.19-.3,3.84-4.83,1.27-1.68-1.49,1.84-3,3.68-4.52,5.48A202.29,202.29,0,0,1,344,359.15c-3,2.7-6.1,5.26-9.21,7.82-3.88,3.2,3.84-2.86,1.11-.84-1,.71-1.89,1.43-2.85,2.13q-2.88,2.1-5.82,4.11a208.48,208.48,0,0,1-22.15,13.06c-11.64,5.95-16,23.23-8.95,34.11,7.66,11.87,21.67,15.3,34.11,8.94Z"/></g><g id="_Grupo_3" data-name="&lt;Grupo&gt;"><g id="_Grupo_4" data-name="&lt;Grupo&gt;"><path class="cls-1" d="M110.51,182.24V407c0,13,11.46,25.53,24.92,24.93s24.93-11,24.93-24.93V182.24c0-13-11.46-25.53-24.93-24.93s-24.92,10.95-24.92,24.93V407c0,13,11.46,25.53,24.92,24.93s24.93-11,24.93-24.93V182.24c0-13-11.46-25.53-24.93-24.93S110.51,168.26,110.51,182.24Z"/></g><g id="_Grupo_5" data-name="&lt;Grupo&gt;"><path class="cls-1" d="M238.76,246.29,163.6,174.66l-10.54-10c-9.44-9-26-10.08-35.25,0-9,9.76-10.09,25.64,0,35.25L193,271.5l10.54,10c9.45,9,26,10.09,35.26,0,9-9.75,10.08-25.64,0-35.25L163.6,174.66l-10.54-10c-9.44-9-26-10.08-35.25,0-9,9.76-10.09,25.64,0,35.25L193,271.5l10.54,10c9.45,9,26,10.09,35.26,0C247.71,271.79,248.84,255.9,238.76,246.29Z"/></g><g id="_Grupo_6" data-name="&lt;Grupo&gt;"><path class="cls-1" d="M342.6,407V182.24a25,25,0,0,0-15.32-22.78c-8.88-3.75-20.43-2.18-27.24,5.15l-88,94.94-12.53,13.52c-8.87,9.56-10.18,25.91,0,35.25,9.64,8.86,25.78,10.22,35.25,0l88-94.94,12.54-13.52-42.56-17.62V407c0,13,11.47,25.53,24.93,24.93s24.93-11,24.93-24.93Z"/></g></g></g></g></g></svg>