<svg xmlns="http://www.w3.org/2000/svg" viewBox="0 0 1080 1080"><defs><style>.cls-1{fill:#181824;}.cls-2{font-size:57px;font-family:Ubuntu, Ubuntu;letter-spacing:0.82em;}.cls-2,.cls-3{fill:#fff;}</style></defs><title>Ativo 1</title><g id="Camada_2" data-name="Camada 2"><g id="maning_news" data-name="maning news"><rect class="cls-1" width="1080" height="1080"/><text class="cls-2" transform="translate(491.25 829.51)">news</text><path class="cls-3" d="M260.3,716.23q0-17.25-4.44-24.45t-15.22-7.2q-3.36,0-7,.36t-7,.84v79.49a17.86,17.86,0,0,1-17.87,17.86h0A17.86,17.86,0,0,1,191,765.27V661.32q4.56-1.19,10.67-2.51t13-2.4q6.82-1.08,14-1.68t14.14-.6q13.68,0,22.18,3.48a50,50,0,0,1,14,8.27,66.83,66.83,0,0,1,36-11.75q15.11,0,24.82,4.2a37.35,37.35,0,0,1,15.46,11.87,44.72,44.72,0,0,1,7.91,18.22,117.58,117.58,0,0,1,2.16,23.5v53.35a17.86,17.86,0,0,1-17.86,17.86h0a17.86,17.86,0,0,1-17.87-17.86v-49q0-17.25-4.43-24.45t-15.23-7.2a32.15,32.15,0,0,0-8,1.44,31.15,31.15,0,0,0-8.51,3.6,55.67,55.67,0,0,1,2.16,11.63q.46,6.12.47,13.07v50.95a17.85,17.85,0,0,1-17.86,17.86h0a17.86,17.86,0,0,1-17.86-17.86Z"/><path class="cls-3" d="M422.63,654.13q15.83,0,26.38,3.6T465.91,668a37.94,37.94,0,0,1,9,16.3,80.4,80.4,0,0,1,2.64,21.34V780q-7.68,1.68-21.34,4a204.85,204.85,0,0,1-33.09,2.28,104.81,104.81,0,0,1-22.18-2.16A48,48,0,0,1,383.79,777a32.27,32.27,0,0,1-11-12.83q-3.84-7.91-3.84-19.42,0-11,4.43-18.7a34.12,34.12,0,0,1,11.87-12.23,53.63,53.63,0,0,1,17-6.6,96.08,96.08,0,0,1,19.9-2,115.46,115.46,0,0,1,12.35.6,56,56,0,0,1,8.75,1.56V704q0-9.12-5.51-14.63t-19.19-5.52a123.36,123.36,0,0,0-18,1.32q-3.49.52-6.62,1.21a8.54,8.54,0,0,1-10.24-7l-1.83-11.58a8.54,8.54,0,0,1,6.49-9.67l.09,0q4.68-1.08,10.19-1.92t11.63-1.44Q416.4,654.13,422.63,654.13Zm2.88,104.55q5.26,0,10.07-.24a70.16,70.16,0,0,0,7.67-.72v-27.1q-2.16-.48-6.47-1a72.16,72.16,0,0,0-7.92-.48,70.83,70.83,0,0,0-9.47.6,24.7,24.7,0,0,0-7.79,2.28,13.29,13.29,0,0,0-5.27,4.56,12.57,12.57,0,0,0-1.92,7.19q0,8.4,5.63,11.63T425.51,758.68Z"/><path class="cls-3" d="M489.53,661.32a201.18,201.18,0,0,1,23.5-4.91,192.88,192.88,0,0,1,30.21-2.28q16.07,0,26.74,4.2a40.17,40.17,0,0,1,16.9,11.87,46.19,46.19,0,0,1,8.87,18.22,96.94,96.94,0,0,1,2.64,23.5v53.35a17.86,17.86,0,0,1-17.86,17.86h0a17.86,17.86,0,0,1-17.87-17.86v-49q0-17.25-4.55-24.45t-17-7.2c-2.56,0-5.27.12-8.15.36s-5.44.52-7.67.84v79.49a17.86,17.86,0,0,1-17.87,17.86h0a17.86,17.86,0,0,1-17.86-17.86Z"/><rect class="cls-3" x="610.38" y="654.13" width="36.26" height="127.99" rx="18.13" ry="18.13"/><path class="cls-3" d="M659.29,661.32a201.18,201.18,0,0,1,23.5-4.91A192.88,192.88,0,0,1,713,654.13q16.07,0,26.74,4.2a40.17,40.17,0,0,1,16.9,11.87,46.19,46.19,0,0,1,8.87,18.22,96.94,96.94,0,0,1,2.64,23.5v53.35a17.86,17.86,0,0,1-17.86,17.86h0a17.86,17.86,0,0,1-17.87-17.86v-49q0-17.25-4.55-24.45t-17-7.2c-2.56,0-5.27.12-8.15.36s-5.44.52-7.67.84v79.49a17.86,17.86,0,0,1-17.87,17.86h0a17.86,17.86,0,0,1-17.86-17.86Z"/><path class="cls-3" d="M889,767.31q0,30.93-15.71,45.92t-48.55,15a132.54,132.54,0,0,1-23-2q-3.54-.63-6.91-1.38A15.08,15.08,0,0,1,783.24,807h0a15,15,0,0,1,18-11.62c1,.24,2,.46,3,.67a103.5,103.5,0,0,0,21,1.92q15.35,0,21.7-6.71T853.27,774v-4.55a56.86,56.86,0,0,1-11.87,3.95,63,63,0,0,1-13.31,1.32q-26.13,0-40-15.46T774.14,716a70.85,70.85,0,0,1,4.32-25.3,53.77,53.77,0,0,1,12.59-19.54,56.05,56.05,0,0,1,20.26-12.59,77.6,77.6,0,0,1,27.1-4.44q6.47,0,13.3.6t13.55,1.56q6.71,1,12.83,2.28T889,661.32ZM810.59,716q0,30,24.22,30a35.73,35.73,0,0,0,10.31-1.44,39.1,39.1,0,0,0,8.15-3.36V684.1c-1.76-.31-3.84-.6-6.23-.84s-5.2-.35-8.4-.35q-14.14,0-21.1,9.35T810.59,716Z"/><g id="_Grupo_" data-name="&lt;Grupo&gt;"><g id="_Grupo_2" data-name="&lt;Grupo&gt;"><path class="cls-3" d="M643.7,643.25c73.49-37.56,121.19-114.76,123-197.1,1.72-77.22-37.49-150.31-101.15-193.4-31.54-21.34-68.31-33.4-106.06-37-38.9-3.75-77.83,3.84-113.41,19.52-66.81,29.43-117.39,94.51-129.29,166.55-6.83,41.31-3.59,84.39,12.46,123.31a234.24,234.24,0,0,0,78.33,100.46,207.08,207.08,0,0,0,28.69,17.69c11.59,5.94,27.58,3.41,34.11-8.94,6-11.39,3.44-27.76-9-34.11A207.17,207.17,0,0,1,433.37,583a29.43,29.43,0,0,0-2.95-2.21c.35.2,4.76,3.79,1.56,1.19-1.72-1.39-3.43-2.78-5.11-4.21q-5.33-4.53-10.32-9.41-4.74-4.63-9.16-9.55c-2.88-3.22-5.39-7.2-8.52-10.14,4.35,4.09,2,2.65.77,1-.74-1-1.46-2-2.18-3-1.14-1.6-2.27-3.21-3.37-4.84q-4.12-6.13-7.81-12.54-3.13-5.47-5.92-11.13-1.49-3-2.86-6.05a20.52,20.52,0,0,0-1.21-2.72c3.3,5,1.11,2.67.22.44a200.46,200.46,0,0,1-8.5-26.51q-1.54-6.3-2.69-12.68c-.44-2.48-.61-5.15-1.2-7.59.11.44.72,6.32.3,2-.15-1.55-.34-3.09-.48-4.64a204.71,204.71,0,0,1-.69-27.24q.25-6.24.89-12.47c.13-1.2,1-8.36.38-3.52-.5,4.2-.11,1,.05-.08.21-1.35.43-2.69.67-4a200.79,200.79,0,0,1,5.85-24.3q1.77-5.75,3.88-11.38c.62-1.67,1.29-3.31,1.93-5,1.45-3.73-.87,2.07-1,2.27.58-1.18,1.05-2.43,1.6-3.64a199.92,199.92,0,0,1,11.39-21.57q3.06-5.06,6.43-9.92,1.68-2.43,3.42-4.8c.52-.71,1.05-1.4,1.57-2.11,2.94-4-3.83,4.74-.69.91A233,233,0,0,1,415.36,316q4.17-4.14,8.59-8.05,2.21-1.95,4.46-3.83c1.5-1.25,8.49-6.29,1.6-1.42,6.45-4.56,12.76-9.19,19.56-13.23a224.48,224.48,0,0,1,21.7-11.18c1.7-.78,5-1.68-1.68.69.83-.3,1.65-.68,2.46-1,1.65-.66,3.31-1.29,5-1.91q6.27-2.29,12.7-4.19a203.5,203.5,0,0,1,23.75-5.42c1.13-.18,2.26-.34,3.38-.53,3.17-.51-5.74.71-2.55.33,2.06-.24,4.11-.49,6.17-.68,4.39-.43,8.79-.7,13.19-.84a204.63,204.63,0,0,1,25.85.84c1.83.17,3.66.39,5.48.6,5,.56-5.26-.8-1.86-.25,1.12.19,2.25.35,3.38.53q6,1,12,2.36A201.6,201.6,0,0,1,603,276.07c1.67.62,3.33,1.25,5,1.91.81.32,1.63.7,2.46,1-6.72-2.37-3.38-1.47-1.68-.69,3.81,1.74,7.61,3.49,11.33,5.42A200.88,200.88,0,0,1,641,296.17c3.08,2.1,6,4.38,9,6.53-6.76-4.78-.83-.59.59.58,1.85,1.52,3.68,3.08,5.47,4.67a202.66,202.66,0,0,1,16.7,16.59c2.62,2.92,5.11,5.95,7.6,9s-1.35-1.76-1.48-1.95c.49.72,1.06,1.4,1.58,2.09q2.14,2.9,4.2,5.86a202.55,202.55,0,0,1,12.6,20.8c1.84,3.51,3.59,7.08,5.22,10.69.85,1.89,2.72,7.53.12.14.74,2.08,1.66,4.11,2.44,6.19a199.71,199.71,0,0,1,7.25,23.72q1.43,5.94,2.48,12c.35,2,.52,4.1,1,6.08-.05-.23-.82-6.66-.34-2.55.16,1.37.32,2.74.47,4.11a204.54,204.54,0,0,1,1,25.48q-.15,6.83-.76,13.61c-.2,2.24-.46,4.47-.71,6.71-.39,3.54,1-6.65.19-1.45-.24,1.46-.46,2.93-.71,4.4a200.38,200.38,0,0,1-6.18,25.68c-1.3,4.15-2.73,8.27-4.29,12.33-.35.9-.71,1.79-1.06,2.69-1.5,3.84.69-1.62.86-1.95-1.2,2.33-2.13,4.84-3.26,7.22a200.81,200.81,0,0,1-12.89,23.11q-3.28,5.09-6.88,10c-.69.94-1.51,1.86-2.13,2.85.19-.31,3.83-4.84,1.27-1.68-1.49,1.84-3,3.68-4.53,5.48a203.43,203.43,0,0,1-18.33,18.81c-3,2.7-6.11,5.25-9.22,7.82-3.87,3.19,3.85-2.87,1.12-.84-1,.71-1.89,1.43-2.85,2.13q-2.88,2.1-5.82,4.1a204.32,204.32,0,0,1-22.16,13.06c-11.63,5.95-15.95,23.24-8.94,34.11,7.65,11.87,21.66,15.3,34.11,8.94Z"/></g><g id="_Grupo_3" data-name="&lt;Grupo&gt;"><g id="_Grupo_4" data-name="&lt;Grupo&gt;"><path class="cls-3" d="M424,397V621.73c0,13,11.47,25.53,24.93,24.93s24.93-10.95,24.93-24.93V397c0-13-11.47-25.53-24.93-24.93S424,383,424,397V621.73c0,13,11.47,25.53,24.93,24.93s24.93-10.95,24.93-24.93V397c0-13-11.47-25.53-24.93-24.93S424,383,424,397Z"/></g><g id="_Grupo_5" data-name="&lt;Grupo&gt;"><path class="cls-3" d="M552.2,461.06l-75.15-71.63-10.54-10.05c-9.45-9-26-10.08-35.26,0-8.95,9.76-10.08,25.65,0,35.26l75.16,71.63L517,496.32c9.45,9,26,10.08,35.25,0,9-9.76,10.09-25.65,0-35.26l-75.15-71.63-10.54-10.05c-9.45-9-26-10.08-35.26,0-8.95,9.76-10.08,25.65,0,35.26l75.16,71.63L517,496.32c9.45,9,26,10.08,35.25,0C561.16,486.56,562.29,470.67,552.2,461.06Z"/></g><g id="_Grupo_6" data-name="&lt;Grupo&gt;"><path class="cls-3" d="M656,621.73V397a25,25,0,0,0-15.33-22.78c-8.87-3.74-20.43-2.18-27.23,5.15l-88,94.94-12.54,13.52c-8.87,9.57-10.17,25.92,0,35.26,9.65,8.85,25.79,10.21,35.26,0l88-94.94,12.54-13.52L606.19,397V621.73c0,13,11.46,25.53,24.93,24.93S656,635.71,656,621.73Z"/></g></g></g></g></g></svg>